<svg width="122" height="124" viewBox="0 0 122 124" fill="none" xmlns="http://www.w3.org/2000/svg">
<path d="M96.6223 40.2351C82.3022 45.9874 69.8206 39.1013 65.5332 28.4281C61.2458 17.7549 66.7761 7.33635 81.0962 1.584C95.4163 -4.16834 122 7.59692 122 7.59692C122 7.59692 110.942 34.4827 96.6223 40.2351Z" fill="#729762"/>
<path d="M25.3777 40.2351C39.6978 45.9874 52.1795 39.1013 56.4669 28.4281C60.7543 17.7549 55.2239 7.33635 40.9038 1.584C26.5837 -4.16834 0 7.59692 0 7.59692C0 7.59692 11.0576 34.4827 25.3777 40.2351Z" fill="#729762"/>
<path d="M62.3348 33.5053C61.8912 34.1447 60.9017 34.1231 60.4863 33.465C56.3259 26.8739 49.1769 22.3604 40.909 22.0221C40.3572 21.9995 39.9088 22.4494 39.9088 23.0017V27.9156C39.9088 28.4679 40.3574 28.9127 40.9088 28.9438C50.1032 29.4631 57.4219 37.0979 57.4458 46.4149V66.8401C57.4458 67.3924 57.8935 67.8401 58.4458 67.8401H63.8428C64.3951 67.8401 64.8428 67.3924 64.8428 66.8401V46.932C65.0868 37.8114 72.2873 30.3933 81.3372 29.8812C81.8886 29.85 82.3373 29.4053 82.3373 28.853V23.939C82.3373 23.3868 81.8888 22.9369 81.337 22.9595C73.4462 23.2821 66.5683 27.4045 62.3348 33.5053Z" fill="#68875A"/>
<path d="M87.2624 123.058H34.7372C32.3901 123.058 30.4032 121.326 30.0838 119.001L23.6714 72.3179C23.2837 69.4962 25.4765 66.9817 28.3247 66.9817H93.6749C96.5232 66.9817 98.7159 69.4962 98.3283 72.3179L91.9158 119.001C91.5964 121.326 89.6095 123.058 87.2624 123.058Z" fill="#977662"/>
<path d="M105.071 54.6111H16.9283C13.8629 54.6111 11.3779 57.0961 11.3779 60.1615V69.2322C11.3779 72.2976 13.8629 74.7826 16.9283 74.7826H105.071C108.137 74.7826 110.622 72.2976 110.622 69.2322V60.1615C110.622 57.0961 108.137 54.6111 105.071 54.6111Z" fill="#B58567"/>
</svg>
